<mxfile host="app.diagrams.net" agent="Mozilla/5.0 (Windows NT 10.0; Win64; x64) AppleWebKit/537.36 (KHTML, like Gecko) Chrome/135.0.0.0 Safari/537.36" version="26.2.13">
  <diagram name="PÃ¡gina-1" id="6ri4a_97W5gfPd1hdPFk">
    <mxGraphModel dx="1680" dy="2043" grid="1" gridSize="10" guides="1" tooltips="1" connect="1" arrows="1" fold="1" page="1" pageScale="1" pageWidth="827" pageHeight="1169" math="0" shadow="0">
      <root>
        <mxCell id="0" />
        <mxCell id="1" parent="0" />
        <mxCell id="wCUKVbfUmBtiyzHpnpFX-1" value="Users" style="swimlane;fontStyle=2;align=center;verticalAlign=top;childLayout=stackLayout;horizontal=1;startSize=26;horizontalStack=0;resizeParent=1;resizeLast=0;collapsible=1;marginBottom=0;rounded=0;shadow=0;strokeWidth=1;" parent="1" vertex="1">
          <mxGeometry x="1357" y="-220" width="190" height="370" as="geometry">
            <mxRectangle x="230" y="140" width="160" height="26" as="alternateBounds" />
          </mxGeometry>
        </mxCell>
        <mxCell id="wCUKVbfUmBtiyzHpnpFX-2" value="- user_id: integer" style="text;align=left;verticalAlign=top;spacingLeft=4;spacingRight=4;overflow=hidden;rotatable=0;points=[[0,0.5],[1,0.5]];portConstraint=eastwest;" parent="wCUKVbfUmBtiyzHpnpFX-1" vertex="1">
          <mxGeometry y="26" width="190" height="26" as="geometry" />
        </mxCell>
        <mxCell id="wCUKVbfUmBtiyzHpnpFX-3" value="- rol_id: integer" style="text;align=left;verticalAlign=top;spacingLeft=4;spacingRight=4;overflow=hidden;rotatable=0;points=[[0,0.5],[1,0.5]];portConstraint=eastwest;rounded=0;shadow=0;html=0;" parent="wCUKVbfUmBtiyzHpnpFX-1" vertex="1">
          <mxGeometry y="52" width="190" height="26" as="geometry" />
        </mxCell>
        <mxCell id="wCUKVbfUmBtiyzHpnpFX-4" value="- username: string" style="text;align=left;verticalAlign=top;spacingLeft=4;spacingRight=4;overflow=hidden;rotatable=0;points=[[0,0.5],[1,0.5]];portConstraint=eastwest;rounded=0;shadow=0;html=0;" parent="wCUKVbfUmBtiyzHpnpFX-1" vertex="1">
          <mxGeometry y="78" width="190" height="26" as="geometry" />
        </mxCell>
        <mxCell id="wCUKVbfUmBtiyzHpnpFX-5" value="- password: string" style="text;align=left;verticalAlign=top;spacingLeft=4;spacingRight=4;overflow=hidden;rotatable=0;points=[[0,0.5],[1,0.5]];portConstraint=eastwest;rounded=0;shadow=0;html=0;" parent="wCUKVbfUmBtiyzHpnpFX-1" vertex="1">
          <mxGeometry y="104" width="190" height="26" as="geometry" />
        </mxCell>
        <mxCell id="wCUKVbfUmBtiyzHpnpFX-6" value="- enabled: boolean" style="text;align=left;verticalAlign=top;spacingLeft=4;spacingRight=4;overflow=hidden;rotatable=0;points=[[0,0.5],[1,0.5]];portConstraint=eastwest;rounded=0;shadow=0;html=0;" parent="wCUKVbfUmBtiyzHpnpFX-1" vertex="1">
          <mxGeometry y="130" width="190" height="26" as="geometry" />
        </mxCell>
        <mxCell id="wCUKVbfUmBtiyzHpnpFX-7" value="- profile: string" style="text;align=left;verticalAlign=top;spacingLeft=4;spacingRight=4;overflow=hidden;rotatable=0;points=[[0,0.5],[1,0.5]];portConstraint=eastwest;rounded=0;shadow=0;html=0;" parent="wCUKVbfUmBtiyzHpnpFX-1" vertex="1">
          <mxGeometry y="156" width="190" height="26" as="geometry" />
        </mxCell>
        <mxCell id="wCUKVbfUmBtiyzHpnpFX-8" value="" style="line;html=1;strokeWidth=1;align=left;verticalAlign=middle;spacingTop=-1;spacingLeft=3;spacingRight=3;rotatable=0;labelPosition=right;points=[];portConstraint=eastwest;" parent="wCUKVbfUmBtiyzHpnpFX-1" vertex="1">
          <mxGeometry y="182" width="190" height="8" as="geometry" />
        </mxCell>
        <mxCell id="wCUKVbfUmBtiyzHpnpFX-9" value="+ getUserId()&#xa;+ getRolId()&#xa;+ getUsername()&#xa;+ getPassword()&#xa;+ getEnabled()&#xa;+ getProfile()&#xa;+ setUserId(integer userId)&#xa;+ setRolId(integer rolId)&#xa;+ setUsername(string username)&#xa;+ setPassword(string password)&#xa;+ setEnabled(boolean enabled)&#xa;+ setProfile(string profile)" style="text;align=left;verticalAlign=middle;spacingLeft=4;spacingRight=4;overflow=hidden;rotatable=0;points=[[0,0.5],[1,0.5]];portConstraint=eastwest;rounded=0;shadow=0;html=0;" parent="wCUKVbfUmBtiyzHpnpFX-1" vertex="1">
          <mxGeometry y="190" width="190" height="180" as="geometry" />
        </mxCell>
        <mxCell id="wCUKVbfUmBtiyzHpnpFX-10" value="Holidays" style="swimlane;fontStyle=0;align=center;verticalAlign=top;childLayout=stackLayout;horizontal=1;startSize=26;horizontalStack=0;resizeParent=1;resizeLast=0;collapsible=1;marginBottom=0;rounded=0;shadow=0;strokeWidth=1;" parent="1" vertex="1">
          <mxGeometry x="1000" y="-170" width="260" height="247" as="geometry">
            <mxRectangle x="130" y="380" width="160" height="26" as="alternateBounds" />
          </mxGeometry>
        </mxCell>
        <mxCell id="wCUKVbfUmBtiyzHpnpFX-11" value="- holiday_id: integer" style="text;align=left;verticalAlign=top;spacingLeft=4;spacingRight=4;overflow=hidden;rotatable=0;points=[[0,0.5],[1,0.5]];portConstraint=eastwest;" parent="wCUKVbfUmBtiyzHpnpFX-10" vertex="1">
          <mxGeometry y="26" width="260" height="26" as="geometry" />
        </mxCell>
        <mxCell id="wCUKVbfUmBtiyzHpnpFX-12" value="- user_id: integer" style="text;align=left;verticalAlign=top;spacingLeft=4;spacingRight=4;overflow=hidden;rotatable=0;points=[[0,0.5],[1,0.5]];portConstraint=eastwest;rounded=0;shadow=0;html=0;" parent="wCUKVbfUmBtiyzHpnpFX-10" vertex="1">
          <mxGeometry y="52" width="260" height="26" as="geometry" />
        </mxCell>
        <mxCell id="wCUKVbfUmBtiyzHpnpFX-13" value="- holiday_start_date: DateTime" style="text;align=left;verticalAlign=top;spacingLeft=4;spacingRight=4;overflow=hidden;rotatable=0;points=[[0,0.5],[1,0.5]];portConstraint=eastwest;rounded=0;shadow=0;html=0;" parent="wCUKVbfUmBtiyzHpnpFX-10" vertex="1">
          <mxGeometry y="78" width="260" height="26" as="geometry" />
        </mxCell>
        <mxCell id="wCUKVbfUmBtiyzHpnpFX-14" value="- holiday_end_date: DateTime" style="text;align=left;verticalAlign=top;spacingLeft=4;spacingRight=4;overflow=hidden;rotatable=0;points=[[0,0.5],[1,0.5]];portConstraint=eastwest;rounded=0;shadow=0;html=0;" parent="wCUKVbfUmBtiyzHpnpFX-10" vertex="1">
          <mxGeometry y="104" width="260" height="26" as="geometry" />
        </mxCell>
        <mxCell id="wCUKVbfUmBtiyzHpnpFX-15" value="" style="line;html=1;strokeWidth=1;align=left;verticalAlign=middle;spacingTop=-1;spacingLeft=3;spacingRight=3;rotatable=0;labelPosition=right;points=[];portConstraint=eastwest;" parent="wCUKVbfUmBtiyzHpnpFX-10" vertex="1">
          <mxGeometry y="130" width="260" height="8" as="geometry" />
        </mxCell>
        <mxCell id="wCUKVbfUmBtiyzHpnpFX-16" value="+ getHolidayId()&lt;div&gt;+ getUserId()&lt;br&gt;+ getHolidayStartDate()&lt;br&gt;+ getHolidayEndDate()&lt;br&gt;+ setUserId(integer id)&lt;br&gt;+ setHolidayStartDate(date holidayStartDate)&lt;br&gt;+ setHolidayEndDate(date holidayEndDate)&lt;/div&gt;" style="text;align=left;verticalAlign=middle;spacingLeft=4;spacingRight=4;overflow=hidden;rotatable=0;points=[[0,0.5],[1,0.5]];portConstraint=eastwest;rounded=0;shadow=0;html=1;spacing=2;" parent="wCUKVbfUmBtiyzHpnpFX-10" vertex="1">
          <mxGeometry y="138" width="260" height="102" as="geometry" />
        </mxCell>
        <mxCell id="wCUKVbfUmBtiyzHpnpFX-17" value="Employees" style="swimlane;fontStyle=0;align=center;verticalAlign=top;childLayout=stackLayout;horizontal=1;startSize=26;horizontalStack=0;resizeParent=1;resizeLast=0;collapsible=1;marginBottom=0;rounded=0;shadow=0;strokeWidth=1;" parent="1" vertex="1">
          <mxGeometry x="694" y="-404" width="280" height="1140" as="geometry">
            <mxRectangle x="340" y="380" width="170" height="26" as="alternateBounds" />
          </mxGeometry>
        </mxCell>
        <mxCell id="wCUKVbfUmBtiyzHpnpFX-18" value="- person_id: integer" style="text;align=left;verticalAlign=top;spacingLeft=4;spacingRight=4;overflow=hidden;rotatable=0;points=[[0,0.5],[1,0.5]];portConstraint=eastwest;" parent="wCUKVbfUmBtiyzHpnpFX-17" vertex="1">
          <mxGeometry y="26" width="280" height="26" as="geometry" />
        </mxCell>
        <mxCell id="wCUKVbfUmBtiyzHpnpFX-19" value="- dept_id: integer" style="text;align=left;verticalAlign=top;spacingLeft=4;spacingRight=4;overflow=hidden;rotatable=0;points=[[0,0.5],[1,0.5]];portConstraint=eastwest;" parent="wCUKVbfUmBtiyzHpnpFX-17" vertex="1">
          <mxGeometry y="52" width="280" height="26" as="geometry" />
        </mxCell>
        <mxCell id="wCUKVbfUmBtiyzHpnpFX-20" value="- project_id: integer" style="text;align=left;verticalAlign=top;spacingLeft=4;spacingRight=4;overflow=hidden;rotatable=0;points=[[0,0.5],[1,0.5]];portConstraint=eastwest;" parent="wCUKVbfUmBtiyzHpnpFX-17" vertex="1">
          <mxGeometry y="78" width="280" height="26" as="geometry" />
        </mxCell>
        <mxCell id="wCUKVbfUmBtiyzHpnpFX-21" value="- user_id: integer" style="text;align=left;verticalAlign=top;spacingLeft=4;spacingRight=4;overflow=hidden;rotatable=0;points=[[0,0.5],[1,0.5]];portConstraint=eastwest;" parent="wCUKVbfUmBtiyzHpnpFX-17" vertex="1">
          <mxGeometry y="104" width="280" height="26" as="geometry" />
        </mxCell>
        <mxCell id="wCUKVbfUmBtiyzHpnpFX-22" value="- nif: string" style="text;align=left;verticalAlign=top;spacingLeft=4;spacingRight=4;overflow=hidden;rotatable=0;points=[[0,0.5],[1,0.5]];portConstraint=eastwest;" parent="wCUKVbfUmBtiyzHpnpFX-17" vertex="1">
          <mxGeometry y="130" width="280" height="26" as="geometry" />
        </mxCell>
        <mxCell id="wCUKVbfUmBtiyzHpnpFX-23" value="- birthday: date" style="text;align=left;verticalAlign=top;spacingLeft=4;spacingRight=4;overflow=hidden;rotatable=0;points=[[0,0.5],[1,0.5]];portConstraint=eastwest;" parent="wCUKVbfUmBtiyzHpnpFX-17" vertex="1">
          <mxGeometry y="156" width="280" height="26" as="geometry" />
        </mxCell>
        <mxCell id="wCUKVbfUmBtiyzHpnpFX-24" value="- country_of_birth: string" style="text;align=left;verticalAlign=top;spacingLeft=4;spacingRight=4;overflow=hidden;rotatable=0;points=[[0,0.5],[1,0.5]];portConstraint=eastwest;" parent="wCUKVbfUmBtiyzHpnpFX-17" vertex="1">
          <mxGeometry y="182" width="280" height="26" as="geometry" />
        </mxCell>
        <mxCell id="wCUKVbfUmBtiyzHpnpFX-25" value="- birth_city: string" style="text;align=left;verticalAlign=top;spacingLeft=4;spacingRight=4;overflow=hidden;rotatable=0;points=[[0,0.5],[1,0.5]];portConstraint=eastwest;" parent="wCUKVbfUmBtiyzHpnpFX-17" vertex="1">
          <mxGeometry y="208" width="280" height="26" as="geometry" />
        </mxCell>
        <mxCell id="wCUKVbfUmBtiyzHpnpFX-26" value="- personal_phone: string" style="text;align=left;verticalAlign=top;spacingLeft=4;spacingRight=4;overflow=hidden;rotatable=0;points=[[0,0.5],[1,0.5]];portConstraint=eastwest;" parent="wCUKVbfUmBtiyzHpnpFX-17" vertex="1">
          <mxGeometry y="234" width="280" height="26" as="geometry" />
        </mxCell>
        <mxCell id="wCUKVbfUmBtiyzHpnpFX-27" value="- first_name: string" style="text;align=left;verticalAlign=top;spacingLeft=4;spacingRight=4;overflow=hidden;rotatable=0;points=[[0,0.5],[1,0.5]];portConstraint=eastwest;" parent="wCUKVbfUmBtiyzHpnpFX-17" vertex="1">
          <mxGeometry y="260" width="280" height="26" as="geometry" />
        </mxCell>
        <mxCell id="wCUKVbfUmBtiyzHpnpFX-28" value="- last_name: string" style="text;align=left;verticalAlign=top;spacingLeft=4;spacingRight=4;overflow=hidden;rotatable=0;points=[[0,0.5],[1,0.5]];portConstraint=eastwest;" parent="wCUKVbfUmBtiyzHpnpFX-17" vertex="1">
          <mxGeometry y="286" width="280" height="26" as="geometry" />
        </mxCell>
        <mxCell id="wCUKVbfUmBtiyzHpnpFX-29" value="- title: enum" style="text;align=left;verticalAlign=top;spacingLeft=4;spacingRight=4;overflow=hidden;rotatable=0;points=[[0,0.5],[1,0.5]];portConstraint=eastwest;" parent="wCUKVbfUmBtiyzHpnpFX-17" vertex="1">
          <mxGeometry y="312" width="280" height="26" as="geometry" />
        </mxCell>
        <mxCell id="wCUKVbfUmBtiyzHpnpFX-30" value="- gender: enum" style="text;align=left;verticalAlign=top;spacingLeft=4;spacingRight=4;overflow=hidden;rotatable=0;points=[[0,0.5],[1,0.5]];portConstraint=eastwest;" parent="wCUKVbfUmBtiyzHpnpFX-17" vertex="1">
          <mxGeometry y="338" width="280" height="26" as="geometry" />
        </mxCell>
        <mxCell id="wCUKVbfUmBtiyzHpnpFX-31" value="- marital_status: enum" style="text;align=left;verticalAlign=top;spacingLeft=4;spacingRight=4;overflow=hidden;rotatable=0;points=[[0,0.5],[1,0.5]];portConstraint=eastwest;" parent="wCUKVbfUmBtiyzHpnpFX-17" vertex="1">
          <mxGeometry y="364" width="280" height="26" as="geometry" />
        </mxCell>
        <mxCell id="wCUKVbfUmBtiyzHpnpFX-32" value="- nationality: string" style="text;align=left;verticalAlign=top;spacingLeft=4;spacingRight=4;overflow=hidden;rotatable=0;points=[[0,0.5],[1,0.5]];portConstraint=eastwest;" parent="wCUKVbfUmBtiyzHpnpFX-17" vertex="1">
          <mxGeometry y="390" width="280" height="26" as="geometry" />
        </mxCell>
        <mxCell id="wCUKVbfUmBtiyzHpnpFX-33" value="- second_nationality: string" style="text;align=left;verticalAlign=top;spacingLeft=4;spacingRight=4;overflow=hidden;rotatable=0;points=[[0,0.5],[1,0.5]];portConstraint=eastwest;" parent="wCUKVbfUmBtiyzHpnpFX-17" vertex="1">
          <mxGeometry y="416" width="280" height="26" as="geometry" />
        </mxCell>
        <mxCell id="wCUKVbfUmBtiyzHpnpFX-34" value="- primary_residence: string" style="text;align=left;verticalAlign=top;spacingLeft=4;spacingRight=4;overflow=hidden;rotatable=0;points=[[0,0.5],[1,0.5]];portConstraint=eastwest;" parent="wCUKVbfUmBtiyzHpnpFX-17" vertex="1">
          <mxGeometry y="442" width="280" height="26" as="geometry" />
        </mxCell>
        <mxCell id="wCUKVbfUmBtiyzHpnpFX-35" value="- personal_email: string" style="text;align=left;verticalAlign=top;spacingLeft=4;spacingRight=4;overflow=hidden;rotatable=0;points=[[0,0.5],[1,0.5]];portConstraint=eastwest;" parent="wCUKVbfUmBtiyzHpnpFX-17" vertex="1">
          <mxGeometry y="468" width="280" height="26" as="geometry" />
        </mxCell>
        <mxCell id="wCUKVbfUmBtiyzHpnpFX-36" value="- secondary_email: string" style="text;align=left;verticalAlign=top;spacingLeft=4;spacingRight=4;overflow=hidden;rotatable=0;points=[[0,0.5],[1,0.5]];portConstraint=eastwest;" parent="wCUKVbfUmBtiyzHpnpFX-17" vertex="1">
          <mxGeometry y="494" width="280" height="26" as="geometry" />
        </mxCell>
        <mxCell id="wCUKVbfUmBtiyzHpnpFX-37" value="- work_email: string" style="text;align=left;verticalAlign=top;spacingLeft=4;spacingRight=4;overflow=hidden;rotatable=0;points=[[0,0.5],[1,0.5]];portConstraint=eastwest;" parent="wCUKVbfUmBtiyzHpnpFX-17" vertex="1">
          <mxGeometry y="520" width="280" height="26" as="geometry" />
        </mxCell>
        <mxCell id="wCUKVbfUmBtiyzHpnpFX-38" value="" style="line;html=1;strokeWidth=1;align=left;verticalAlign=middle;spacingTop=-1;spacingLeft=3;spacingRight=3;rotatable=0;labelPosition=right;points=[];portConstraint=eastwest;" parent="wCUKVbfUmBtiyzHpnpFX-17" vertex="1">
          <mxGeometry y="546" width="280" height="8" as="geometry" />
        </mxCell>
        <mxCell id="wCUKVbfUmBtiyzHpnpFX-39" value="+ getPersonId()&#xa;+ getDeptId()&#xa;+ getProjectId()&#xa;+ getUserId()&#xa;+ getNif()&#xa;+ getBirthday()&#xa;+ getCountryOfBirth()&#xa;+ getBirthCity()&#xa;+ getPersonalPhone()&#xa;+ getFristName()&#xa;+ getLastName()&#xa;+ getTitle()&#xa;+ getGender()&#xa;+ getMaritalStatus()&#xa;+ getNationality()&#xa;+ getSecondNationality()&#xa;+ getPrimaryResidence()&#xa;+ getPersonalEmail()&#xa;+ getSecondaryEmail()&#xa;+ getWorkEmail()&#xa;+ setPersonId(integer id)&#xa;+ setDeptId(integer deptId)&#xa;+ setProjectId(integer projectId)&#xa;+ setUserId(integer userId)&#xa;+ setNif(string nif)&#xa;+ setBirthday(date birthday)&#xa;+ setCountryOfBirth(string countryOfBirth)&#xa;+ setBirthCity(string birthCity)&#xa;+ setPersonalPhone(string personalPhone)&#xa;+ setFristName(string firstName)&#xa;+ setLastName(string lastName)&#xa;+ setTitle(enum title)&#xa;+ setGender(enum gender)&#xa;+ setMaritalStatus(enum maritalStatus)&#xa;+ setNationality(string nationality)&#xa;+ setSecondNationality(string secondNationality)&#xa;+ setPrimaryResidence(string primaryResidence)&#xa;+ setPersonalEmail(string personalEmail)&#xa;+ setSecondaryEmail(string secondaryEmail)&#xa;+ setWorkEmail(string workEmail)" style="text;align=left;verticalAlign=top;spacingLeft=4;spacingRight=4;overflow=hidden;rotatable=0;points=[[0,0.5],[1,0.5]];portConstraint=eastwest;rounded=0;shadow=0;spacingTop=0;spacingBottom=0;spacing=2;whiteSpace=wrap;" parent="wCUKVbfUmBtiyzHpnpFX-17" vertex="1">
          <mxGeometry y="554" width="280" height="586" as="geometry" />
        </mxCell>
        <mxCell id="wCUKVbfUmBtiyzHpnpFX-40" value="Roles" style="swimlane;fontStyle=0;align=center;verticalAlign=top;childLayout=stackLayout;horizontal=1;startSize=26;horizontalStack=0;resizeParent=1;resizeLast=0;collapsible=1;marginBottom=0;rounded=0;shadow=0;strokeWidth=1;" parent="1" vertex="1">
          <mxGeometry x="1654" y="-220" width="160" height="141" as="geometry">
            <mxRectangle x="550" y="140" width="160" height="26" as="alternateBounds" />
          </mxGeometry>
        </mxCell>
        <mxCell id="wCUKVbfUmBtiyzHpnpFX-41" value="- rol_id: integer" style="text;align=left;verticalAlign=top;spacingLeft=4;spacingRight=4;overflow=hidden;rotatable=0;points=[[0,0.5],[1,0.5]];portConstraint=eastwest;" parent="wCUKVbfUmBtiyzHpnpFX-40" vertex="1">
          <mxGeometry y="26" width="160" height="26" as="geometry" />
        </mxCell>
        <mxCell id="wCUKVbfUmBtiyzHpnpFX-42" value="- rol: enum" style="text;align=left;verticalAlign=top;spacingLeft=4;spacingRight=4;overflow=hidden;rotatable=0;points=[[0,0.5],[1,0.5]];portConstraint=eastwest;rounded=0;shadow=0;html=0;" parent="wCUKVbfUmBtiyzHpnpFX-40" vertex="1">
          <mxGeometry y="52" width="160" height="26" as="geometry" />
        </mxCell>
        <mxCell id="wCUKVbfUmBtiyzHpnpFX-43" value="" style="line;html=1;strokeWidth=1;align=left;verticalAlign=middle;spacingTop=-1;spacingLeft=3;spacingRight=3;rotatable=0;labelPosition=right;points=[];portConstraint=eastwest;" parent="wCUKVbfUmBtiyzHpnpFX-40" vertex="1">
          <mxGeometry y="78" width="160" height="8" as="geometry" />
        </mxCell>
        <mxCell id="wCUKVbfUmBtiyzHpnpFX-44" value="+ getRolId()&#xa;+ getTypeRol()&#xa;+ setTypeRol(enum typeRol)" style="text;align=left;verticalAlign=top;spacingLeft=4;spacingRight=4;overflow=hidden;rotatable=0;points=[[0,0.5],[1,0.5]];portConstraint=eastwest;rounded=0;shadow=0;html=0;" parent="wCUKVbfUmBtiyzHpnpFX-40" vertex="1">
          <mxGeometry y="86" width="160" height="44" as="geometry" />
        </mxCell>
        <mxCell id="wCUKVbfUmBtiyzHpnpFX-47" value="Projects" style="swimlane;fontStyle=0;align=center;verticalAlign=top;childLayout=stackLayout;horizontal=1;startSize=26;horizontalStack=0;resizeParent=1;resizeLast=0;collapsible=1;marginBottom=0;rounded=0;shadow=0;strokeWidth=1;" parent="1" vertex="1">
          <mxGeometry x="1126" y="-404" width="230" height="146" as="geometry">
            <mxRectangle x="340" y="380" width="170" height="26" as="alternateBounds" />
          </mxGeometry>
        </mxCell>
        <mxCell id="wCUKVbfUmBtiyzHpnpFX-48" value="- project_id: integer" style="text;align=left;verticalAlign=top;spacingLeft=4;spacingRight=4;overflow=hidden;rotatable=0;points=[[0,0.5],[1,0.5]];portConstraint=eastwest;" parent="wCUKVbfUmBtiyzHpnpFX-47" vertex="1">
          <mxGeometry y="26" width="230" height="26" as="geometry" />
        </mxCell>
        <mxCell id="wCUKVbfUmBtiyzHpnpFX-49" value="- project_name: string" style="text;align=left;verticalAlign=top;spacingLeft=4;spacingRight=4;overflow=hidden;rotatable=0;points=[[0,0.5],[1,0.5]];portConstraint=eastwest;" parent="wCUKVbfUmBtiyzHpnpFX-47" vertex="1">
          <mxGeometry y="52" width="230" height="26" as="geometry" />
        </mxCell>
        <mxCell id="wCUKVbfUmBtiyzHpnpFX-50" value="" style="line;html=1;strokeWidth=1;align=left;verticalAlign=middle;spacingTop=-1;spacingLeft=3;spacingRight=3;rotatable=0;labelPosition=right;points=[];portConstraint=eastwest;" parent="wCUKVbfUmBtiyzHpnpFX-47" vertex="1">
          <mxGeometry y="78" width="230" height="8" as="geometry" />
        </mxCell>
        <mxCell id="WKhAKDtkmbLkq5meKqxA-26" value="+ getProjectId()&lt;div&gt;+ getProjectName&lt;/div&gt;&lt;div&gt;+ setProjectName(string projectName()&lt;/div&gt;" style="text;html=1;align=left;verticalAlign=middle;resizable=0;points=[];autosize=1;strokeColor=none;fillColor=none;spacingLeft=4;" vertex="1" parent="wCUKVbfUmBtiyzHpnpFX-47">
          <mxGeometry y="86" width="230" height="60" as="geometry" />
        </mxCell>
        <mxCell id="wCUKVbfUmBtiyzHpnpFX-52" value="Departments" style="swimlane;fontStyle=0;align=center;verticalAlign=top;childLayout=stackLayout;horizontal=1;startSize=26;horizontalStack=0;resizeParent=1;resizeLast=0;collapsible=1;marginBottom=0;rounded=0;shadow=0;strokeWidth=1;" parent="1" vertex="1">
          <mxGeometry x="354" y="-150" width="220" height="470" as="geometry">
            <mxRectangle x="130" y="380" width="160" height="26" as="alternateBounds" />
          </mxGeometry>
        </mxCell>
        <mxCell id="wCUKVbfUmBtiyzHpnpFX-53" value="- dept_id: integer" style="text;align=left;verticalAlign=top;spacingLeft=4;spacingRight=4;overflow=hidden;rotatable=0;points=[[0,0.5],[1,0.5]];portConstraint=eastwest;" parent="wCUKVbfUmBtiyzHpnpFX-52" vertex="1">
          <mxGeometry y="26" width="220" height="26" as="geometry" />
        </mxCell>
        <mxCell id="wCUKVbfUmBtiyzHpnpFX-54" value="- organizaton_id: integer" style="text;align=left;verticalAlign=top;spacingLeft=4;spacingRight=4;overflow=hidden;rotatable=0;points=[[0,0.5],[1,0.5]];portConstraint=eastwest;rounded=0;shadow=0;html=0;" parent="wCUKVbfUmBtiyzHpnpFX-52" vertex="1">
          <mxGeometry y="52" width="220" height="26" as="geometry" />
        </mxCell>
        <mxCell id="wCUKVbfUmBtiyzHpnpFX-55" value="- name: string" style="text;align=left;verticalAlign=top;spacingLeft=4;spacingRight=4;overflow=hidden;rotatable=0;points=[[0,0.5],[1,0.5]];portConstraint=eastwest;rounded=0;shadow=0;html=0;" parent="wCUKVbfUmBtiyzHpnpFX-52" vertex="1">
          <mxGeometry y="78" width="220" height="26" as="geometry" />
        </mxCell>
        <mxCell id="wCUKVbfUmBtiyzHpnpFX-56" value="- bussines_unit: string" style="text;align=left;verticalAlign=top;spacingLeft=4;spacingRight=4;overflow=hidden;rotatable=0;points=[[0,0.5],[1,0.5]];portConstraint=eastwest;rounded=0;shadow=0;html=0;" parent="wCUKVbfUmBtiyzHpnpFX-52" vertex="1">
          <mxGeometry y="104" width="220" height="26" as="geometry" />
        </mxCell>
        <mxCell id="wCUKVbfUmBtiyzHpnpFX-57" value="- divison: string" style="text;align=left;verticalAlign=top;spacingLeft=4;spacingRight=4;overflow=hidden;rotatable=0;points=[[0,0.5],[1,0.5]];portConstraint=eastwest;" parent="wCUKVbfUmBtiyzHpnpFX-52" vertex="1">
          <mxGeometry y="130" width="220" height="26" as="geometry" />
        </mxCell>
        <mxCell id="wCUKVbfUmBtiyzHpnpFX-58" value="- cost_center: string" style="text;align=left;verticalAlign=top;spacingLeft=4;spacingRight=4;overflow=hidden;rotatable=0;points=[[0,0.5],[1,0.5]];portConstraint=eastwest;rounded=0;shadow=0;html=0;" parent="wCUKVbfUmBtiyzHpnpFX-52" vertex="1">
          <mxGeometry y="156" width="220" height="26" as="geometry" />
        </mxCell>
        <mxCell id="wCUKVbfUmBtiyzHpnpFX-59" value="- location: string" style="text;align=left;verticalAlign=top;spacingLeft=4;spacingRight=4;overflow=hidden;rotatable=0;points=[[0,0.5],[1,0.5]];portConstraint=eastwest;" parent="wCUKVbfUmBtiyzHpnpFX-52" vertex="1">
          <mxGeometry y="182" width="220" height="26" as="geometry" />
        </mxCell>
        <mxCell id="wCUKVbfUmBtiyzHpnpFX-60" value="- time_zone: string" style="text;align=left;verticalAlign=top;spacingLeft=4;spacingRight=4;overflow=hidden;rotatable=0;points=[[0,0.5],[1,0.5]];portConstraint=eastwest;rounded=0;shadow=0;html=0;" parent="wCUKVbfUmBtiyzHpnpFX-52" vertex="1">
          <mxGeometry y="208" width="220" height="26" as="geometry" />
        </mxCell>
        <mxCell id="wCUKVbfUmBtiyzHpnpFX-61" value="" style="line;html=1;strokeWidth=1;align=left;verticalAlign=middle;spacingTop=-1;spacingLeft=3;spacingRight=3;rotatable=0;labelPosition=right;points=[];portConstraint=eastwest;" parent="wCUKVbfUmBtiyzHpnpFX-52" vertex="1">
          <mxGeometry y="234" width="220" height="8" as="geometry" />
        </mxCell>
        <mxCell id="wCUKVbfUmBtiyzHpnpFX-62" value="+ getDeptId()&#xa;+ getOrgId()&#xa;+ getName()&#xa;+ getBusinessUnit()&#xa;+ getDivision()&#xa;+ getCostCenter()&#xa;+ getLocation()&#xa;+ getTimeZone()&#xa;+ setOrgId(integer id)&#xa;+ setName(string name)&#xa;+ setBusinessUnit(string businessUnit)&#xa;+ setDivision(stringÂ division)&#xa;+ setCostCenter(string costCenter)&#xa;+ setLocation(stringÂ location)&#xa;+ setTimeZone(string timeZone)" style="text;align=left;verticalAlign=top;spacingLeft=4;spacingRight=4;overflow=hidden;rotatable=0;points=[[0,0.5],[1,0.5]];portConstraint=eastwest;rounded=0;shadow=0;html=0;whiteSpace=wrap;" parent="wCUKVbfUmBtiyzHpnpFX-52" vertex="1">
          <mxGeometry y="242" width="220" height="228" as="geometry" />
        </mxCell>
        <mxCell id="wCUKVbfUmBtiyzHpnpFX-63" value="Organizations" style="swimlane;fontStyle=0;align=center;verticalAlign=top;childLayout=stackLayout;horizontal=1;startSize=26;horizontalStack=0;resizeParent=1;resizeLast=0;collapsible=1;marginBottom=0;rounded=0;shadow=0;strokeWidth=1;" parent="1" vertex="1">
          <mxGeometry x="380" y="-404" width="180" height="120" as="geometry">
            <mxRectangle x="130" y="380" width="160" height="26" as="alternateBounds" />
          </mxGeometry>
        </mxCell>
        <mxCell id="wCUKVbfUmBtiyzHpnpFX-64" value="- org_id: integer&#xa;- name: string" style="text;align=left;verticalAlign=top;spacingLeft=4;spacingRight=4;overflow=hidden;rotatable=0;points=[[0,0.5],[1,0.5]];portConstraint=eastwest;" parent="wCUKVbfUmBtiyzHpnpFX-63" vertex="1">
          <mxGeometry y="26" width="180" height="34" as="geometry" />
        </mxCell>
        <mxCell id="wCUKVbfUmBtiyzHpnpFX-66" value="" style="line;html=1;strokeWidth=1;align=left;verticalAlign=middle;spacingTop=-1;spacingLeft=3;spacingRight=3;rotatable=0;labelPosition=right;points=[];portConstraint=eastwest;" parent="wCUKVbfUmBtiyzHpnpFX-63" vertex="1">
          <mxGeometry y="60" width="180" height="8" as="geometry" />
        </mxCell>
        <mxCell id="wCUKVbfUmBtiyzHpnpFX-67" value="+ getOrgId()&#xa;+ getName()&#xa;+ setName(string name)Â " style="text;align=left;verticalAlign=top;spacingLeft=4;spacingRight=4;overflow=hidden;rotatable=0;points=[[0,0.5],[1,0.5]];portConstraint=eastwest;rounded=0;shadow=0;html=0;" parent="wCUKVbfUmBtiyzHpnpFX-63" vertex="1">
          <mxGeometry y="68" width="180" height="50" as="geometry" />
        </mxCell>
        <mxCell id="WKhAKDtkmbLkq5meKqxA-27" value="&lt;span style=&quot;font-weight: normal;&quot;&gt;Guests&lt;/span&gt;" style="swimlane;fontStyle=1;align=center;verticalAlign=top;childLayout=stackLayout;horizontal=1;startSize=26;horizontalStack=0;resizeParent=1;resizeParentMax=0;resizeLast=0;collapsible=1;marginBottom=0;whiteSpace=wrap;html=1;" vertex="1" parent="1">
          <mxGeometry x="1157" y="237" width="160" height="100" as="geometry" />
        </mxCell>
        <mxCell id="WKhAKDtkmbLkq5meKqxA-29" value="" style="line;strokeWidth=1;fillColor=none;align=left;verticalAlign=middle;spacingTop=-1;spacingLeft=3;spacingRight=3;rotatable=0;labelPosition=right;points=[];portConstraint=eastwest;strokeColor=inherit;" vertex="1" parent="WKhAKDtkmbLkq5meKqxA-27">
          <mxGeometry y="26" width="160" height="74" as="geometry" />
        </mxCell>
        <mxCell id="WKhAKDtkmbLkq5meKqxA-31" value="Extends" style="endArrow=block;endSize=16;endFill=0;html=1;rounded=0;exitX=0.5;exitY=0;exitDx=0;exitDy=0;entryX=0.005;entryY=0.883;entryDx=0;entryDy=0;entryPerimeter=0;" edge="1" parent="1" source="WKhAKDtkmbLkq5meKqxA-27" target="wCUKVbfUmBtiyzHpnpFX-9">
          <mxGeometry width="160" relative="1" as="geometry">
            <mxPoint x="1187" y="127" as="sourcePoint" />
            <mxPoint x="1347" y="127" as="targetPoint" />
            <Array as="points">
              <mxPoint x="1237" y="127" />
            </Array>
          </mxGeometry>
        </mxCell>
        <mxCell id="WKhAKDtkmbLkq5meKqxA-32" value="&lt;span style=&quot;font-weight: normal;&quot;&gt;Normal Users&lt;/span&gt;" style="swimlane;fontStyle=1;align=center;verticalAlign=top;childLayout=stackLayout;horizontal=1;startSize=26;horizontalStack=0;resizeParent=1;resizeParentMax=0;resizeLast=0;collapsible=1;marginBottom=0;whiteSpace=wrap;html=1;" vertex="1" parent="1">
          <mxGeometry x="1372" y="237" width="160" height="100" as="geometry" />
        </mxCell>
        <mxCell id="WKhAKDtkmbLkq5meKqxA-33" value="" style="line;strokeWidth=1;fillColor=none;align=left;verticalAlign=middle;spacingTop=-1;spacingLeft=3;spacingRight=3;rotatable=0;labelPosition=right;points=[];portConstraint=eastwest;strokeColor=inherit;" vertex="1" parent="WKhAKDtkmbLkq5meKqxA-32">
          <mxGeometry y="26" width="160" height="74" as="geometry" />
        </mxCell>
        <mxCell id="WKhAKDtkmbLkq5meKqxA-34" value="&lt;span style=&quot;font-weight: normal;&quot;&gt;Admins&lt;/span&gt;" style="swimlane;fontStyle=1;align=center;verticalAlign=top;childLayout=stackLayout;horizontal=1;startSize=26;horizontalStack=0;resizeParent=1;resizeParentMax=0;resizeLast=0;collapsible=1;marginBottom=0;whiteSpace=wrap;html=1;" vertex="1" parent="1">
          <mxGeometry x="1597" y="237" width="160" height="100" as="geometry" />
        </mxCell>
        <mxCell id="WKhAKDtkmbLkq5meKqxA-35" value="" style="line;strokeWidth=1;fillColor=none;align=left;verticalAlign=middle;spacingTop=-1;spacingLeft=3;spacingRight=3;rotatable=0;labelPosition=right;points=[];portConstraint=eastwest;strokeColor=inherit;" vertex="1" parent="WKhAKDtkmbLkq5meKqxA-34">
          <mxGeometry y="26" width="160" height="74" as="geometry" />
        </mxCell>
        <mxCell id="WKhAKDtkmbLkq5meKqxA-36" value="Extends" style="endArrow=block;endSize=16;endFill=0;html=1;rounded=0;exitX=0.5;exitY=0;exitDx=0;exitDy=0;entryX=1;entryY=0.867;entryDx=0;entryDy=0;entryPerimeter=0;" edge="1" parent="1" source="WKhAKDtkmbLkq5meKqxA-34" target="wCUKVbfUmBtiyzHpnpFX-9">
          <mxGeometry width="160" relative="1" as="geometry">
            <mxPoint x="1677" y="196" as="sourcePoint" />
            <mxPoint x="1798" y="128" as="targetPoint" />
            <Array as="points">
              <mxPoint x="1677" y="126" />
            </Array>
          </mxGeometry>
        </mxCell>
        <mxCell id="WKhAKDtkmbLkq5meKqxA-37" value="Extends" style="endArrow=block;endSize=16;endFill=0;html=1;rounded=0;entryX=0.5;entryY=1.017;entryDx=0;entryDy=0;entryPerimeter=0;exitX=0.5;exitY=0;exitDx=0;exitDy=0;" edge="1" parent="1" source="WKhAKDtkmbLkq5meKqxA-32" target="wCUKVbfUmBtiyzHpnpFX-9">
          <mxGeometry width="160" relative="1" as="geometry">
            <mxPoint x="1377" y="197" as="sourcePoint" />
            <mxPoint x="1537" y="197" as="targetPoint" />
          </mxGeometry>
        </mxCell>
        <mxCell id="WKhAKDtkmbLkq5meKqxA-38" value="&lt;div&gt;Abstract Class&lt;/div&gt;Super class&lt;div&gt;Main class&lt;/div&gt;" style="text;html=1;align=center;verticalAlign=middle;resizable=0;points=[];autosize=1;strokeColor=none;fillColor=none;" vertex="1" parent="1">
          <mxGeometry x="1402" y="-284" width="100" height="60" as="geometry" />
        </mxCell>
        <mxCell id="WKhAKDtkmbLkq5meKqxA-39" value="Derived class&lt;div&gt;subclass&lt;/div&gt;" style="text;html=1;align=center;verticalAlign=middle;resizable=0;points=[];autosize=1;strokeColor=none;fillColor=none;" vertex="1" parent="1">
          <mxGeometry x="1110" y="187" width="100" height="40" as="geometry" />
        </mxCell>
        <mxCell id="WKhAKDtkmbLkq5meKqxA-40" value="Derived class&lt;div&gt;subclass&lt;/div&gt;" style="text;html=1;align=center;verticalAlign=middle;resizable=0;points=[];autosize=1;strokeColor=none;fillColor=none;" vertex="1" parent="1">
          <mxGeometry x="1317" y="187" width="100" height="40" as="geometry" />
        </mxCell>
        <mxCell id="WKhAKDtkmbLkq5meKqxA-41" value="Derived class&lt;div&gt;subclass&lt;/div&gt;" style="text;html=1;align=center;verticalAlign=middle;resizable=0;points=[];autosize=1;strokeColor=none;fillColor=none;" vertex="1" parent="1">
          <mxGeometry x="1700" y="187" width="100" height="40" as="geometry" />
        </mxCell>
        <mxCell id="WKhAKDtkmbLkq5meKqxA-43" value="" style="endArrow=diamondThin;endFill=1;endSize=24;html=1;rounded=0;entryX=1.011;entryY=0.125;entryDx=0;entryDy=0;entryPerimeter=0;exitX=0.5;exitY=0;exitDx=0;exitDy=0;" edge="1" parent="1" source="wCUKVbfUmBtiyzHpnpFX-52" target="wCUKVbfUmBtiyzHpnpFX-63">
          <mxGeometry width="160" relative="1" as="geometry">
            <mxPoint x="470" y="-280" as="sourcePoint" />
            <mxPoint x="760" y="-500" as="targetPoint" />
            <Array as="points">
              <mxPoint x="464" y="-250" />
              <mxPoint x="600" y="-250" />
              <mxPoint x="600" y="-390" />
            </Array>
          </mxGeometry>
        </mxCell>
        <mxCell id="WKhAKDtkmbLkq5meKqxA-44" value="" style="endArrow=diamondThin;endFill=1;endSize=24;html=1;rounded=0;entryX=1.005;entryY=0.032;entryDx=0;entryDy=0;entryPerimeter=0;exitX=0.011;exitY=0.012;exitDx=0;exitDy=0;exitPerimeter=0;" edge="1" parent="1" source="wCUKVbfUmBtiyzHpnpFX-17" target="wCUKVbfUmBtiyzHpnpFX-52">
          <mxGeometry width="160" relative="1" as="geometry">
            <mxPoint x="700" y="-510" as="sourcePoint" />
            <mxPoint x="860" y="-510" as="targetPoint" />
            <Array as="points">
              <mxPoint x="650" y="-390" />
              <mxPoint x="650" y="-135" />
            </Array>
          </mxGeometry>
        </mxCell>
        <mxCell id="WKhAKDtkmbLkq5meKqxA-45" value="" style="endArrow=diamondThin;endFill=0;endSize=24;html=1;rounded=0;entryX=0.001;entryY=0.035;entryDx=0;entryDy=0;entryPerimeter=0;exitX=0.996;exitY=0.011;exitDx=0;exitDy=0;exitPerimeter=0;" edge="1" parent="1" target="wCUKVbfUmBtiyzHpnpFX-47">
          <mxGeometry width="160" relative="1" as="geometry">
            <mxPoint x="974.0000000000001" y="-400.00000000000006" as="sourcePoint" />
            <mxPoint x="1130.1099999999997" y="-398.52399999999994" as="targetPoint" />
            <Array as="points" />
          </mxGeometry>
        </mxCell>
        <mxCell id="WKhAKDtkmbLkq5meKqxA-46" value="" style="endArrow=none;html=1;edgeStyle=orthogonalEdgeStyle;rounded=0;exitX=0.996;exitY=0.016;exitDx=0;exitDy=0;exitPerimeter=0;entryX=0;entryY=0.007;entryDx=0;entryDy=0;entryPerimeter=0;" edge="1" parent="1" source="wCUKVbfUmBtiyzHpnpFX-17" target="wCUKVbfUmBtiyzHpnpFX-1">
          <mxGeometry relative="1" as="geometry">
            <mxPoint x="1050" y="-210" as="sourcePoint" />
            <mxPoint x="1210" y="-210" as="targetPoint" />
            <Array as="points">
              <mxPoint x="1090" y="-386" />
              <mxPoint x="1090" y="-217" />
              <mxPoint x="1357" y="-217" />
            </Array>
          </mxGeometry>
        </mxCell>
        <mxCell id="WKhAKDtkmbLkq5meKqxA-48" value="has" style="edgeLabel;resizable=0;html=1;align=right;verticalAlign=bottom;" connectable="0" vertex="1" parent="WKhAKDtkmbLkq5meKqxA-46">
          <mxGeometry x="1" relative="1" as="geometry">
            <mxPoint x="-103" y="-4" as="offset" />
          </mxGeometry>
        </mxCell>
        <mxCell id="WKhAKDtkmbLkq5meKqxA-78" value="" style="endArrow=none;html=1;edgeStyle=orthogonalEdgeStyle;rounded=0;exitX=1.007;exitY=0.052;exitDx=0;exitDy=0;exitPerimeter=0;" edge="1" parent="1" source="wCUKVbfUmBtiyzHpnpFX-10">
          <mxGeometry relative="1" as="geometry">
            <mxPoint x="1197" y="-200" as="sourcePoint" />
            <mxPoint x="1357" y="-200" as="targetPoint" />
            <Array as="points">
              <mxPoint x="1310" y="-157" />
              <mxPoint x="1310" y="-200" />
            </Array>
          </mxGeometry>
        </mxCell>
        <mxCell id="WKhAKDtkmbLkq5meKqxA-80" value="has" style="edgeLabel;resizable=0;html=1;align=right;verticalAlign=bottom;" connectable="0" vertex="1" parent="WKhAKDtkmbLkq5meKqxA-78">
          <mxGeometry x="1" relative="1" as="geometry">
            <mxPoint x="-62" y="39" as="offset" />
          </mxGeometry>
        </mxCell>
        <mxCell id="WKhAKDtkmbLkq5meKqxA-81" value="" style="endArrow=none;html=1;edgeStyle=orthogonalEdgeStyle;rounded=0;entryX=-0.003;entryY=0.038;entryDx=0;entryDy=0;entryPerimeter=0;exitX=0.996;exitY=0.016;exitDx=0;exitDy=0;exitPerimeter=0;" edge="1" parent="1">
          <mxGeometry relative="1" as="geometry">
            <mxPoint x="1547" y="-207.43999999999994" as="sourcePoint" />
            <mxPoint x="1654.28" y="-208.00200000000007" as="targetPoint" />
            <Array as="points">
              <mxPoint x="1601" y="-207" />
              <mxPoint x="1654" y="-207" />
            </Array>
          </mxGeometry>
        </mxCell>
        <mxCell id="WKhAKDtkmbLkq5meKqxA-83" value="has" style="edgeLabel;resizable=0;html=1;align=right;verticalAlign=bottom;" connectable="0" vertex="1" parent="WKhAKDtkmbLkq5meKqxA-81">
          <mxGeometry x="1" relative="1" as="geometry">
            <mxPoint x="-44" y="1" as="offset" />
          </mxGeometry>
        </mxCell>
        <mxCell id="WKhAKDtkmbLkq5meKqxA-84" value="1..*" style="text;html=1;align=center;verticalAlign=middle;resizable=0;points=[];autosize=1;strokeColor=none;fillColor=none;" vertex="1" parent="1">
          <mxGeometry x="430" y="-192" width="40" height="30" as="geometry" />
        </mxCell>
        <mxCell id="WKhAKDtkmbLkq5meKqxA-85" value="1..*" style="text;html=1;align=center;verticalAlign=middle;resizable=0;points=[];autosize=1;strokeColor=none;fillColor=none;" vertex="1" parent="1">
          <mxGeometry x="654" y="-420" width="40" height="30" as="geometry" />
        </mxCell>
        <mxCell id="WKhAKDtkmbLkq5meKqxA-86" value="1..*" style="text;html=1;align=center;verticalAlign=middle;resizable=0;points=[];autosize=1;strokeColor=none;fillColor=none;" vertex="1" parent="1">
          <mxGeometry x="974" y="-434" width="40" height="30" as="geometry" />
        </mxCell>
        <mxCell id="WKhAKDtkmbLkq5meKqxA-87" value="1" style="text;html=1;align=center;verticalAlign=middle;resizable=0;points=[];autosize=1;strokeColor=none;fillColor=none;" vertex="1" parent="1">
          <mxGeometry x="560" y="-420" width="30" height="30" as="geometry" />
        </mxCell>
        <mxCell id="WKhAKDtkmbLkq5meKqxA-88" value="1" style="text;html=1;align=center;verticalAlign=middle;resizable=0;points=[];autosize=1;strokeColor=none;fillColor=none;" vertex="1" parent="1">
          <mxGeometry x="574" y="-170" width="30" height="30" as="geometry" />
        </mxCell>
        <mxCell id="WKhAKDtkmbLkq5meKqxA-89" value="1" style="text;html=1;align=center;verticalAlign=middle;resizable=0;points=[];autosize=1;strokeColor=none;fillColor=none;" vertex="1" parent="1">
          <mxGeometry x="1095" y="-434" width="30" height="30" as="geometry" />
        </mxCell>
        <mxCell id="WKhAKDtkmbLkq5meKqxA-90" value="1..*" style="text;html=1;align=center;verticalAlign=middle;resizable=0;points=[];autosize=1;strokeColor=none;fillColor=none;" vertex="1" parent="1">
          <mxGeometry x="1530" y="-252" width="40" height="30" as="geometry" />
        </mxCell>
        <mxCell id="WKhAKDtkmbLkq5meKqxA-91" value="1" style="text;html=1;align=center;verticalAlign=middle;resizable=0;points=[];autosize=1;strokeColor=none;fillColor=none;" vertex="1" parent="1">
          <mxGeometry x="1640" y="-252" width="30" height="30" as="geometry" />
        </mxCell>
        <mxCell id="WKhAKDtkmbLkq5meKqxA-92" value="1" style="text;html=1;align=center;verticalAlign=middle;resizable=0;points=[];autosize=1;strokeColor=none;fillColor=none;" vertex="1" parent="1">
          <mxGeometry x="975" y="-382" width="30" height="30" as="geometry" />
        </mxCell>
        <mxCell id="WKhAKDtkmbLkq5meKqxA-93" value="1" style="text;html=1;align=center;verticalAlign=middle;resizable=0;points=[];autosize=1;strokeColor=none;fillColor=none;" vertex="1" parent="1">
          <mxGeometry x="1327" y="-240" width="30" height="30" as="geometry" />
        </mxCell>
        <mxCell id="WKhAKDtkmbLkq5meKqxA-94" value="1..*" style="text;html=1;align=center;verticalAlign=middle;resizable=0;points=[];autosize=1;strokeColor=none;fillColor=none;" vertex="1" parent="1">
          <mxGeometry x="1260" y="-152" width="40" height="30" as="geometry" />
        </mxCell>
        <mxCell id="WKhAKDtkmbLkq5meKqxA-95" value="1" style="text;html=1;align=center;verticalAlign=middle;resizable=0;points=[];autosize=1;strokeColor=none;fillColor=none;" vertex="1" parent="1">
          <mxGeometry x="1327" y="-200" width="30" height="30" as="geometry" />
        </mxCell>
      </root>
    </mxGraphModel>
  </diagram>
</mxfile>
